<?xml version="1.0" encoding="UTF-8"?>
<svg
  xmlns="http://www.w3.org/2000/svg"
  version="1.1"
  viewBox="0 0 80.599854 80.599861"
  height="80.599861mm"
  width="80.599854mm">
  <g>
    <path
      fill="#097c38"
      d="m 40.300172,-5e-5 c -22.25283,0 -40.30078,18.04795 -40.300781,40.30078 -5e-6,22.25283 18.047947,40.29883 40.300781,40.29883 22.252834,0 40.298834,-18.046 40.298824,-40.29883 C 80.598996,18.0479 62.553006,-5e-5 40.300172,-5e-5 Z m 0,0.71093 c 21.869114,0 39.589844,17.72073 39.589844,39.58985 0,21.86912 -17.72072,39.58984 -39.589844,39.58984 -21.869121,0 -39.589848,-17.72072 -39.589844,-39.58984 1e-6,-21.86912 17.720727,-39.58985 39.589844,-39.58985 z"/>
    <g
      id="text4538"
      transform="translate(-46.516234,-131.25435)"
      aria-label="K&amp;R Spot-Repair"
      fill="#097c38">
      <path
        id="path4684"
        d="m 59.637752,144.8209 0.895406,2.82167 3.27862,0.97593 -1.266604,1.39626 -3.167011,-1.1482 -0.898686,-2.76882 z m -2.16378,2.38527 4.17958,3.79148 -1.127721,1.24315 -4.179581,-3.79147 z"/>
      <path
        id="path4686"
        d="m 65.361071,144.30571 0.831593,-0.64116 q 0.131737,0.14378 0.179698,0.20598 0.305435,0.39616 0.382366,0.8954 l 1.365691,0.47135 -1.16554,0.89864 -0.252124,-0.0562 q -0.176068,0.5638 -0.591864,0.88438 -0.602414,0.46447 -1.348614,0.37683 -0.74545,-0.0934 -1.202341,-0.68604 -0.517474,-0.67116 -0.303247,-1.59848 -0.622262,-0.1571 -0.947892,-0.57945 -0.411455,-0.53366 -0.331035,-1.20121 0.08369,-0.67007 0.610807,-1.07647 0.520564,-0.40136 1.17979,-0.32497 0.659226,0.0764 1.047962,0.5806 0.05301,0.0688 0.124714,0.17529 l -1.011663,0.78 q -0.283666,-0.31375 -0.489927,-0.15473 -0.193166,0.14894 -0.04928,0.33555 0.05049,0.0655 0.16925,0.10442 z m -0.82854,1.11907 q -0.06955,0.24155 0.05161,0.3987 0.116116,0.15061 0.291838,0.18217 0.178996,0.029 0.319778,-0.0795 0.104767,-0.0808 0.15775,-0.26258 z"/>
      <path
        id="path4688"
        d="m 69.008411,139.98267 1.921999,3.65082 -1.485206,0.7819 -2.628785,-4.99337 1.905892,-1.00336 q 0.870638,-0.45836 1.577105,-0.27898 0.788301,0.2017 1.179248,0.9443 0.398651,0.75724 0.01,1.62527 l 1.940259,1.60889 -1.558369,0.82041 -1.568028,-1.23019 -0.675973,-1.28401 0.11706,-0.0616 q 0.468243,-0.2465 0.256399,-0.6489 -0.186807,-0.35484 -0.728212,-0.0698 z"/>
      <path
        id="path4690"
        d="m 76.852329,135.22717 0.466236,1.53911 q -0.192067,-0.007 -0.287024,0.0222 -0.182002,0.0551 -0.271818,0.22921 -0.08982,0.17407 -0.03229,0.36399 0.04914,0.16222 0.267086,0.36833 l 0.187375,0.1765 q 0.507339,0.47698 0.670342,1.01507 0.238511,0.78736 -0.157921,1.50356 -0.392475,0.715 -1.199614,0.9595 -0.387743,0.11746 -0.821507,0.0545 l -0.473427,-1.56284 q 0.273827,0.0769 0.451872,0.0229 0.209698,-0.0635 0.312221,-0.22417 0.105281,-0.1658 0.05015,-0.3478 -0.03596,-0.1187 -0.382534,-0.45 -0.551815,-0.52398 -0.743583,-1.15703 -0.23132,-0.76361 0.14413,-1.47778 0.378209,-0.71932 1.133912,-0.94824 0.332351,-0.10068 0.686392,-0.087 z"/>
      <path
        id="path4692"
        d="m 80.904267,141.70601 -1.523903,0.26139 -0.581494,-3.39007 q -0.16005,-0.93309 0.228259,-1.6037 0.223139,-0.38642 0.620801,-0.66016 0.401736,-0.27444 0.858092,-0.35272 0.908637,-0.15585 1.636889,0.3484 0.728251,0.50426 0.880614,1.39253 0.148169,0.86381 -0.363539,1.59754 -0.511708,0.73372 -1.359227,0.87909 -0.138536,0.0238 -0.412353,0.0414 l -0.287951,-1.67874 q 0.213292,0.11861 0.400724,0.0865 0.236327,-0.0405 0.373333,-0.2444 0.14108,-0.20456 0.09984,-0.44496 -0.04124,-0.2404 -0.245099,-0.37741 -0.204562,-0.14108 -0.449039,-0.0991 -0.586743,0.10064 -0.44766,0.91149 z"/>
      <path
        id="path4694"
        d="m 85.889791,135.42868 q 0.876098,-0.0242 1.517598,0.59078 0.645519,0.61077 0.669864,1.491 0.02469,0.89263 -0.594348,1.53838 -0.614904,0.64563 -1.511664,0.67044 -0.89676,0.0248 -1.550543,-0.58575 -0.653898,-0.61467 -0.678473,-1.50317 -0.02503,-0.90502 0.594348,-1.53837 0.619266,-0.63748 1.553218,-0.66331 z m 8.51e-4,1.52604 q -0.247952,0.007 -0.416489,0.19349 -0.168651,0.1825 -0.161451,0.44285 0.0071,0.25622 0.185683,0.43325 0.182728,0.17692 0.426547,0.17017 0.247952,-0.007 0.41649,-0.19349 0.172669,-0.18674 0.165583,-0.44296 -0.0072,-0.26035 -0.185682,-0.43325 -0.178596,-0.17703 -0.430681,-0.17006 z"/>
      <path
        id="path4696"
        d="m 90.627114,134.15528 -0.132974,1.57363 0.692065,0.0585 -0.137499,1.62717 -0.692065,-0.0585 q -0.04142,0.49022 0.09533,0.68847 0.140874,0.1986 0.552817,0.23341 l -0.136803,1.61894 q -0.119812,-0.006 -0.177484,-0.0108 -0.523168,-0.0442 -0.968126,-0.32659 -0.440838,-0.28203 -0.685802,-0.72177 -0.309366,-0.56134 -0.235221,-1.43878 l 0.285093,-3.37381 z"/>
      <path
        id="path4698"
        d="m 93.483814,137.15481 -0.168453,1.08251 -1.866823,-0.2905 0.168454,-1.08252 z"/>
      <path
        id="path4700"
        d="m 96.254113,136.67249 -1.052963,3.98922 -1.622869,-0.42836 1.440175,-5.4562 2.082549,0.5497 q 0.951337,0.2511 1.350473,0.86099 0.444324,0.68167 0.230144,1.49311 -0.2184,0.82742 -1.091717,1.20406 l 0.341342,2.49732 -1.702813,-0.44946 -0.323219,-1.96663 0.370331,-1.40302 0.127911,0.0338 q 0.511643,0.13505 0.627701,-0.30464 0.102342,-0.38773 -0.489245,-0.54388 z"/>
      <path
        id="path4702"
        d="m 102.7786,141.50085 -2.15523,-0.92169 q 0.0205,-0.18458 0.079,-0.32142 0.0813,-0.19006 0.22773,-0.34325 l 0.72221,0.30885 q 0.10441,-0.45443 -0.29471,-0.62511 -0.26607,-0.11379 -0.53086,0.0428 -0.26315,0.15274 -0.41433,0.50624 -0.15768,0.36871 -0.0956,0.66505 0.0659,0.29797 0.32819,0.41013 0.21286,0.091 0.50155,-0.0373 l 0.3935,1.31933 q -0.75656,0.20252 -1.44836,-0.0933 -0.843851,-0.36087 -1.175612,-1.1727 -0.331761,-0.81182 0.02586,-1.64807 0.355996,-0.83244 1.179222,-1.15933 0.82703,-0.32526 1.67088,0.0356 0.82484,0.35274 1.14302,1.15426 0.32361,0.79935 -0.0275,1.62039 -0.0358,0.0836 -0.12899,0.25958 z"/>
      <path
        id="path4704"
        d="m 103.0894,145.53457 -1.32049,-0.80431 1.78927,-2.93756 q 0.49247,-0.80854 1.22584,-1.05889 0.42212,-0.14466 0.90175,-0.0897 0.48317,0.0571 0.87861,0.29797 0.78735,0.47957 1.00496,1.33821 0.21762,0.85865 -0.2512,1.62834 -0.45592,0.74852 -1.32377,0.96536 -0.86786,0.21685 -1.60225,-0.23046 -0.12004,-0.0731 -0.33802,-0.23978 l 0.88603,-1.45465 q 0.0828,0.22956 0.24526,0.32848 0.20478,0.12474 0.44201,0.0611 0.24077,-0.0615 0.36765,-0.26981 0.12688,-0.20831 0.0632,-0.44555 -0.0615,-0.24076 -0.27334,-0.3698 -0.50842,-0.30968 -0.93638,0.39294 z"/>
      <path
        id="path4706"
        d="m 109.541,146.34912 -1.0211,1.23169 q -0.16751,-0.0959 -0.28845,-0.19617 -0.71609,-0.59366 -0.80299,-1.46047 -0.0869,-0.8668 0.50148,-1.57654 0.57255,-0.69063 1.45154,-0.7728 0.88218,-0.0795 1.57281,0.49303 0.77021,0.63851 0.83793,1.4572 0.0735,0.81814 -0.57289,1.59789 l -1.29022,1.55631 -1.19031,-0.98679 1.21898,-1.47039 q 0.20844,-0.25143 0.20833,-0.50391 0.003,-0.24985 -0.20381,-0.42135 -0.18777,-0.15567 -0.43808,-0.13227 -0.25031,0.0234 -0.40598,0.21117 -0.16359,0.19733 -0.145,0.42753 0.0186,0.23021 0.20954,0.38852 0.15595,0.12929 0.35822,0.15735 z"/>
      <path
        id="path4708"
        d="m 114.58331,147.58913 -2.96261,2.86556 -1.07495,-1.11135 2.96262,-2.86556 z m 0.78773,-1.83172 q 0.21844,0.22584 0.21606,0.54448 0.003,0.31874 -0.21346,0.52855 -0.23178,0.22419 -0.53269,0.21041 -0.29803,-0.0108 -0.53371,-0.25448 -0.23569,-0.24367 -0.23944,-0.54487 -8.8e-4,-0.29822 0.2309,-0.52241 0.21692,-0.20982 0.53249,-0.19871 0.32141,0.0112 0.53985,0.23703 z"/>
      <path
        id="path4710"
        d="m 116.88616,150.22237 -1.27378,1.05453 q -0.0328,-0.1822 -0.11712,-0.2841 -0.2689,-0.32481 -0.76568,0.0865 l -1.50624,1.24698 -0.98598,-1.19098 1.73552,-1.43679 q 0.68784,-0.56945 1.40654,-0.53113 0.72188,0.0357 1.24123,0.66301 0.116,0.14012 0.26551,0.39203 z"/>
    </g>
    <path
      class="fan"
      fill="#097c38"
      d="m 44.195312,10.3125 -0.162109,0.01953 c -0.140403,0.01 -0.341998,-0.01807 -0.458984,-0.0039 l -1.052735,0.126953 0.05469,0.103516 c -1.52843,0.302556 -2.928021,0.787511 -4.179688,1.61914 -0.953412,0.633473 -2.138508,1.79643 -2.765625,2.72461 -1.135775,1.681036 -1.809383,3.576156 -2.046875,5.716797 -0.112039,1.009884 -0.10141,2.978925 0.03711,3.919921 0.442359,3.004921 1.607081,6.153044 3.330078,9.044922 0.03973,0.06669 0.06299,0.109374 0.09961,0.171875 -1.256679,0.686595 -2.378839,1.661184 -3.011719,2.730469 -0.234561,-0.09098 -0.512519,-0.200111 -0.828124,-0.328125 -3.272406,-1.327281 -3.737778,-1.605473 -5.396485,-3.310547 -0.979073,-1.006455 -1.423163,-1.611815 -1.880859,-2.533203 -0.508269,-1.023191 -0.66464,-1.571458 -0.847656,-2.982422 -0.116905,-0.901283 -0.284154,-1.603008 -0.6875,-2.199219 -0.403878,-0.596981 -0.994438,-0.993957 -1.75,-1.371093 -0.659495,-0.329172 -0.996963,-0.433705 -1.533204,-0.492188 -0.846543,-0.09224 -2.242168,-0.06485 -3.027343,0.113281 -0.661093,0.149977 -1.54355,0.539578 -2.212891,0.935547 -2.650467,1.567955 -4.555202,4.663203 -5.244141,8.291016 -0.213522,1.124382 -0.286947,2.966696 -0.15625,4.078125 0.333023,2.831935 1.44317,5.166492 3.365235,7.023438 1.397402,1.350074 3.191142,2.3134 5.210937,2.822265 1.752391,0.441436 4.547734,0.469858 6.521485,0.0957 2.660631,-0.504386 5.805941,-1.709598 8.160156,-3.123047 l 0.08789,-0.05273 c 0.659533,1.21708 1.625761,2.296892 2.75586,3.003906 l 0.01758,0.01172 -0.380859,0.949219 c -0.33277,0.827282 -0.790668,1.854206 -0.947266,2.152343 -1.260997,2.400841 -2.889655,4.04868 -5.027344,5.123047 -0.666063,0.334759 -1.565375,0.611588 -2.582031,0.775391 -0.604394,0.09739 -0.964125,0.157339 -1.259766,0.230469 -0.293062,0.07249 -0.531433,0.171829 -0.746093,0.285156 -1.04751,0.553066 -1.823863,1.706762 -2.117188,2.912109 -0.201525,0.828096 -0.216998,2.116925 -0.08008,3.009766 0.247661,1.614906 1.155893,3.258307 2.460937,4.582031 1.444323,1.465 3.295049,2.524983 5.417969,3.121094 0.484538,0.136057 1.041329,0.227671 1.566407,0.318359 v 0.08789 l 0.701171,0.05078 c 0.857285,0.07525 2.879435,0.0548 3.699219,-0.04687 4.895439,-0.607278 8.597813,-4.148059 9.542969,-9.095703 0.318303,-1.66622 0.349449,-3.950642 0.06836,-5.544922 -0.507105,-2.876203 -1.637939,-5.84489 -3.236328,-8.523437 -0.04806,-0.08054 -0.07934,-0.136196 -0.123047,-0.210938 1.220535,-0.653163 2.165587,-1.472163 2.929688,-2.601562 0.0573,-0.08469 0.04812,-0.06589 0.0918,-0.126953 1.479966,0.576714 2.631165,1.040006 3.005859,1.222656 2.028802,0.98897 4.161124,3.054224 5.076172,4.880859 0.465145,0.928543 0.665394,1.61549 0.849609,2.951172 0.03519,0.255218 0.07601,0.516329 0.115235,0.738281 0.03914,0.221507 0.06373,0.373318 0.115234,0.542969 0.32878,1.083962 1.088983,1.845354 2.347656,2.449219 0.800321,0.383908 1.459056,0.483459 2.919922,0.443359 0.949614,-0.02608 1.337379,-0.06705 1.751953,-0.197265 1.836178,-0.576795 3.522671,-1.78445 4.75586,-3.388672 1.343392,-1.747595 2.311355,-4.21543 2.574218,-6.509766 0.06565,-0.573088 0.06941,-1.46556 0.04687,-2.357422 -0.02253,-0.891504 -0.05464,-1.684017 -0.167968,-2.203125 -0.522072,-2.391523 -1.821087,-4.668399 -3.542969,-6.146484 -1.756813,-1.508074 -4.088557,-2.540289 -6.259766,-2.740235 -0.601424,-0.05536 -1.619611,-0.06002 -2.621094,-0.04102 -1.00125,0.019 -1.879569,0.0456 -2.40039,0.142578 -2.603928,0.4849 -6.091669,1.837792 -8.371094,3.240234 -0.658497,-1.207486 -1.622553,-2.258381 -2.761719,-2.990234 0.492373,-1.23144 1.054087,-2.575348 1.292969,-3.046875 1.69574,-3.347179 4.406603,-5.471751 7.453125,-5.957031 0.892924,-0.142235 1.41975,-0.229151 1.876953,-0.392578 0.458061,-0.163734 0.803407,-0.43309 1.111328,-0.734375 0.757682,-0.741361 1.21911,-1.665239 1.414063,-2.783204 0.28276,-1.621448 -0.01574,-3.342053 -0.824219,-4.916015 -1.594102,-3.103378 -5.076028,-5.223162 -9.199219,-5.763672 -0.774037,-0.101472 -1.989607,-0.07956 -2.929687,-0.02539 z m -0.439453,1.523438 c 0.597912,-0.07236 2.509077,-0.05836 3.177735,0.0293 3.722357,0.48796 6.737283,2.40741 8.044922,4.953125 0.672465,1.309147 0.900087,2.695154 0.679687,3.958985 -0.154158,0.884034 -0.432983,1.423289 -0.980469,1.958984 -0.259418,0.253828 -0.310443,0.299966 -0.558593,0.388672 -0.245066,0.0876 -0.725065,0.183979 -1.605469,0.324219 -3.589573,0.57178 -6.69316,3.070074 -8.56836,6.771484 -0.3518,0.694421 -1.003975,2.236707 -1.560546,3.667969 -0.02222,0.05687 0.0106,0.09379 0.0039,0.152344 l -0.05859,0.15039 0.06836,0.150391 c 0.01111,0.04567 -0.0096,0.124367 0.0039,0.154297 0.04276,0.09429 0.08672,0.153563 0.11914,0.193359 0.06383,0.07838 0.11744,0.12614 0.171875,0.171875 0.10954,0.09202 0.225163,0.169759 0.355469,0.248047 1.026556,0.616804 1.966956,1.636729 2.521484,2.744141 0.06342,0.12665 0.122071,0.240974 0.166016,0.326172 0.01696,0.03287 0.03045,0.06425 0.05664,0.113281 h 0.002 c 0.02112,0.03941 0.01824,0.03352 0.01758,0.03125 2.81e-4,5.82e-4 0.0019,0.0039 0.002,0.0039 1e-5,1.9e-5 0.0035,0.0052 0.0039,0.0059 -0.0017,-0.0031 0.0044,0.0083 0.002,0.0039 0.01297,0.02268 0.02465,0.04153 0.01953,0.0332 7.6e-5,1.23e-4 -0.0049,-0.01183 -0.0078,-0.01758 0.01235,0.01962 0.01962,0.03429 0.03125,0.05273 1.3e-5,1.8e-5 0.0035,0.0053 0.0039,0.0059 0.0046,0.0058 0.02632,0.03553 0.04687,0.06055 0,0 0.0053,0.0053 0.0059,0.0059 0.0094,0.0088 0.07262,0.06629 0.09375,0.08594 l 0.01172,0.01953 0.167968,0.302735 0.324219,-0.150391 h 0.002 c 0.01273,-3.47e-4 0.02886,-0.0016 0.05273,-0.0039 0.02475,-0.0024 0.11686,-0.0214 0.117187,-0.02148 h 0.002 c 0.117634,-0.03167 0.15993,-0.06027 0.109375,-0.03906 l 0.002,-0.002 c 0.0619,-0.02654 0.07834,-0.03793 0.0918,-0.04492 0.05239,-0.02722 0.104885,-0.05553 0.167969,-0.0918 0.124553,-0.07162 0.28993,-0.169512 0.470703,-0.28125 2.046012,-1.264684 5.544104,-2.620761 7.884766,-3.056641 0.162274,-0.03022 1.178876,-0.09876 2.15039,-0.117187 0.972257,-0.01845 2.016907,-0.005 2.453125,0.03516 1.780234,0.163929 3.905019,1.088556 5.408204,2.378907 1.413284,1.21319 2.599917,3.256916 3.050781,5.322265 0.03608,0.165269 0.111241,1.058585 0.132812,1.912109 0.02156,0.853261 0.0063,1.771746 -0.03711,2.150391 -0.227376,1.984591 -1.141069,4.285915 -2.269531,5.753906 -1.04797,1.363284 -2.50137,2.395927 -4.007813,2.869141 -0.276077,0.08672 -0.414103,0.101551 -1.33789,0.126953 -1.412116,0.03875 -1.560277,0.02283 -2.222657,-0.294922 C 57.64922,54.809549 57.41469,54.561511 57.1875,53.8125 v -0.002 c 0.0083,0.02726 -0.037,-0.165643 -0.07227,-0.365235 -0.03471,-0.196435 -0.07264,-0.443643 -0.105468,-0.68164 C 56.813315,51.339225 56.539627,50.395631 56.011719,49.341797 54.893512,47.109589 52.622485,44.93281 50.244141,43.773438 49.682284,43.499558 48.57873,43.053575 46.6875,42.324219 v 0.002 c -0.10196,-0.03937 -0.322572,-0.09868 -0.558594,-0.0332 -0.219141,0.06072 -0.359516,0.18823 -0.441406,0.273437 -0.164168,0.170861 -0.266964,0.334497 -0.464844,0.626953 -0.675837,0.998939 -1.389796,1.626171 -2.511718,2.199219 -0.154366,0.07884 -0.294089,0.155303 -0.41211,0.226563 -0.0626,0.03779 -0.11543,0.07246 -0.166016,0.109375 -0.03474,0.02533 -0.07148,0.05535 -0.109374,0.0918 l -0.002,0.002 -0.002,0.002 c -0.0329,0.03213 -0.06729,0.0704 -0.09766,0.113281 0.07423,-0.105643 6.88e-4,-0.03208 -0.07422,0.125 l -0.144531,0.134766 0.07617,0.18164 v 0.0039 c 3.41e-4,0.0028 0.0042,0.02562 0.0059,0.03906 -9.72e-4,-0.01527 -0.0013,-0.02043 -0.002,-0.03125 l 0.08008,0.191406 c -0.0073,0.0023 -0.05274,0.01562 -0.05273,0.01563 1.5e-5,5.1e-5 0.0024,0.0071 0.0039,0.01172 0.0029,0.0086 0.0065,0.01785 0.0078,0.02148 0.0034,0.0094 0.0022,0.01048 0.002,0.0098 -0.0026,-0.008 0.0057,0.01842 0.002,0.0078 l 0.002,0.0059 0.0039,0.0078 c -0.0043,-0.01119 0.0051,0.02026 0.02539,0.06445 0.02682,0.05838 0.03907,0.07491 0.04687,0.08984 0.02594,0.0496 0.06383,0.123093 0.113281,0.210938 0.09411,0.167159 0.218507,0.377276 0.353516,0.603515 1.506202,2.524054 2.574031,5.340941 3.044922,8.011719 0.230365,1.30659 0.203653,3.58241 -0.06641,4.996094 -0.835506,4.373669 -3.953145,7.341484 -8.238281,7.873047 -0.433291,0.05374 -2.863437,0.08968 -3.386719,0.04297 -0.291048,-0.02599 -1.399458,-0.24451 -1.982421,-0.408204 -1.894502,-0.532071 -3.499514,-1.458226 -4.746094,-2.722656 -1.103259,-1.119045 -1.856553,-2.547182 -2.041016,-3.75 -0.08603,-0.560959 -0.03057,-2.069598 0.05469,-2.419922 0.175145,-0.71972 0.933589,-1.708082 1.349609,-1.927734 0.158659,-0.08377 0.201855,-0.103231 0.400391,-0.152344 0.195025,-0.04824 0.53799,-0.1086 1.136718,-0.205078 1.139697,-0.183622 2.172856,-0.490469 3.023438,-0.917969 2.423906,-1.218215 4.308436,-3.144096 5.689453,-5.773437 0.239215,-0.455447 0.664094,-1.430709 1.011719,-2.294922 l 0.855468,-2.126953 -1.095703,-0.685547 c -0.909393,-0.568934 -1.777216,-1.52144 -2.30664,-2.548828 l -0.666016,-1.291016 -1.458984,0.875 c -2.163546,1.298965 -5.225518,2.470103 -7.660157,2.931641 -1.672072,0.316979 -4.512943,0.266919 -5.867187,-0.07422 -1.785449,-0.449826 -3.337011,-1.295309 -4.527344,-2.445312 -1.681975,-1.625004 -2.61248,-3.561407 -2.912109,-6.109376 -0.0946,-0.804506 -0.02155,-2.76957 0.138672,-3.613281 0.621659,-3.273532 2.367083,-5.993522 4.527344,-7.271484 0.50064,-0.296174 1.465789,-0.691484 1.77539,-0.761719 0.237312,-0.05384 2.011779,-0.140158 2.527344,-0.08398 0.486438,0.05305 0.386291,0.02476 1.021484,0.341797 0.658387,0.328637 0.966594,0.568505 1.166016,0.863281 0.199008,0.294158 0.336217,0.733967 0.441406,1.544922 0.192659,1.485302 0.435887,2.339076 0.994141,3.46289 0.520622,1.048067 1.118017,1.848805 2.154297,2.914063 1.715609,1.763567 2.604894,2.318752 5.912109,3.660156 0.363818,0.14756 0.701785,0.281675 0.958984,0.380859 0.1303,0.05025 0.238929,0.09044 0.31836,0.119141 0.04169,0.01508 0.077,0.02732 0.113281,0.03906 v 0.002 c -0.04235,-0.01361 -0.05441,-0.01208 0.06445,0.01953 h 0.002 c 0.09477,0.02494 0.09138,0.02028 0.05273,0.01172 0.0016,3.26e-4 0.0025,-2.7e-4 0.0039,0 -0.0056,-0.0012 0.01348,0.0034 0.0059,0.002 0.0041,7.77e-4 0.0084,0.001 0.01367,0.002 0.0046,8e-4 0.0094,0.0024 0.01953,0.0039 0.0051,7.74e-4 0.01142,0.0024 0.02344,0.0039 0.01202,0.0015 0.0897,0.0039 0.08984,0.0039 h 0.0039 0.0059 c 0.0361,-5.17e-4 0.0315,-0.01675 0.06641,-0.02344 l 0.650391,0.144532 v -0.558594 c 5.76e-4,-8.14e-4 0.0014,-0.0011 0.002,-0.002 0.07487,-0.106081 0.148121,-0.224057 0.220703,-0.357422 0.416756,-0.765764 1.589993,-1.850345 2.75,-2.429688 0.111747,-0.0558 0.214055,-0.107569 0.289063,-0.146484 0.03367,-0.01747 0.06374,-0.03332 0.09961,-0.05273 l 0.002,-0.002 c 0.02722,-0.0148 0.04943,-0.02799 0.04492,-0.02539 0.001,-5.2e-4 0.003,-0.0015 0.0039,-0.002 0.005,-0.0026 0.02138,-0.01165 0.02148,-0.01172 l 0.0059,-0.0039 0.0059,-0.002 c 0.03938,-0.0252 0.04374,-0.03068 0.05469,-0.03906 0.0081,-0.0062 0.0377,-0.032 0.05664,-0.04883 l 0.002,-0.002 c 0.0017,-0.0021 0.03218,-0.04039 0.06445,-0.08008 l 0.320312,-0.179688 -0.144531,-0.326172 c -7.15e-4,-0.01698 -0.0019,-0.03502 -0.002,-0.03516 -4.3e-5,-5e-4 -0.0087,-0.06244 -0.01172,-0.07813 -0.003,-0.01568 -9.34e-4,-0.02179 -0.02344,-0.0918 -0.0304,-0.09311 -0.05003,-0.124588 -0.0332,-0.08594 -0.01461,-0.03356 -0.02877,-0.06223 -0.04492,-0.09375 -0.0305,-0.05954 -0.06624,-0.126458 -0.111328,-0.207032 -0.08982,-0.160547 -0.211857,-0.372314 -0.34961,-0.603515 -1.628245,-2.732849 -2.724314,-5.71532 -3.132812,-8.490235 -0.08268,-0.561667 -0.109267,-2.810455 -0.0293,-3.53125 0.213967,-1.928605 0.799455,-3.558895 1.796875,-5.035156 0.424161,-0.62779 1.671702,-1.860763 2.345703,-2.308594 1.334076,-0.886381 2.747424,-1.39292 4.519531,-1.607421 z m -1.945312,34.761718 c -0.0031,-0.01044 -0.0033,-0.0128 -0.0059,-0.02148 1.59e-4,0.0012 0.0019,0.0117 0.002,0.01172 0.0055,0.01943 -1.4e-4,-0.0031 0.0039,0.0098 z m -2.384766,-9.203125 c -0.692908,0.231711 -1.277541,0.74683 -1.642578,1.441407 -0.08576,0.163192 -0.17403,0.363709 -0.212891,0.583984 -0.03888,0.220386 -0.03888,0.416923 -0.03906,0.707031 -3.7e-4,0.570039 0.0703,0.939635 0.230469,1.28125 0.371246,0.791861 1.096314,1.360025 1.955078,1.539063 0.639956,0.133446 1.303359,0.05541 1.900391,-0.210938 C 42.26262,42.448434 42.753392,41.909377 43.015625,41.25 43.31978,40.485207 43.306344,39.624736 42.964844,38.876953 42.691459,38.278346 42.23245,37.790794 41.626953,37.53125 40.895686,37.217781 40.11785,37.163115 39.425781,37.394531 Z m 6.496094,1.087891 c 0.0047,0.0056 0.01126,0.01311 0.01367,0.01563 0.0073,0.0076 0.01102,0.0092 0.01563,0.01367 z m -6.015625,0.349609 c 0.306857,-0.10254 0.68054,-0.09594 1.123047,0.09375 0.164692,0.07059 0.443167,0.335892 0.554687,0.580078 0.109542,0.239867 0.12893,0.913426 0.02148,1.183594 C 41.49857,40.958252 41.205883,41.257779 41,41.349609 c -0.177898,0.07937 -0.809448,0.145361 -0.972656,0.111329 -0.412017,-0.0859 -0.719827,-0.330741 -0.892578,-0.699219 -0.120631,-0.257279 -0.08628,-0.09904 -0.08594,-0.634766 1.82e-4,-0.274229 0.01119,-0.407191 0.01758,-0.443359 0.0068,-0.03879 -0.0045,-0.01691 0.06055,-0.140625 0.20645,-0.392829 0.473025,-0.608593 0.779297,-0.710938 z"/>
    <g
      transform="translate(-46.516234,-132.84185)"
      aria-label="... damit sich`s wieder dreht!"
      fill="#097c38">
      <path
        id="path4631"
        d="m 54.125314,186.70601 q 0.126438,0.31305 -0.01005,0.62826 -0.135198,0.3184 -0.448248,0.44484 -0.31305,0.12644 -0.623776,-0.008 -0.307531,-0.13588 -0.43526,-0.45212 -0.132889,-0.32902 -0.0085,-0.6282 0.128872,-0.29727 0.457893,-0.43016 0.319439,-0.12902 0.628874,0.002 0.31263,0.1301 0.439069,0.44315 z"/>
      <path
        id="path4633"
        d="m 55.168636,189.04644 q 0.148499,0.3032 0.0349,0.62737 -0.112085,0.32725 -0.415293,0.47575 -0.303207,0.1485 -0.622761,0.0365 -0.31646,-0.11354 -0.466474,-0.41984 -0.156076,-0.31868 -0.0534,-0.62598 0.107285,-0.30573 0.425963,-0.4618 0.309395,-0.15153 0.627433,-0.0426 0.321133,0.10741 0.469632,0.41062 z"/>
      <path
        id="path4635"
        d="m 56.376938,191.30485 q 0.16999,0.29171 0.08008,0.62322 -0.08818,0.33449 -0.379882,0.50448 -0.291702,0.16999 -0.618506,0.0813 -0.323827,-0.0904 -0.495551,-0.38509 -0.178663,-0.30658 -0.09843,-0.62049 0.08495,-0.31267 0.391531,-0.49134 0.297656,-0.17346 0.622725,-0.0878 0.328045,0.084 0.498035,0.37566 z"/>
      <path
        id="path4637"
        d="m 61.909055,193.77831 0.79742,1.01206 -2.24872,1.7718 q -0.619684,0.48826 -1.265211,0.47057 -0.371719,-0.01 -0.732454,-0.19482 -0.358603,-0.18237 -0.597402,-0.48545 -0.475468,-0.60344 -0.395779,-1.33729 0.07969,-0.73384 0.669606,-1.19865 0.570975,-0.44988 1.311791,-0.36691 0.740815,0.083 1.184301,0.64582 0.07036,0.0893 0.196977,0.2834 l -1.114889,0.87844 q -6.61e-4,-0.20123 -0.09874,-0.32571 -0.123664,-0.15695 -0.329574,-0.17892 -0.201072,-0.0214 -0.363434,0.10653 -0.156951,0.12366 -0.178922,0.32957 -0.01927,0.20378 0.108662,0.36614 0.307029,0.38967 0.845531,-0.0346 z"/>
      <path
        id="path4639"
        d="m 61.72145,198.66044 -0.94866,0.9368 q -0.130962,-0.0934 -0.222948,-0.18654 -0.544655,-0.55155 -0.544963,-1.27751 -3.08e-4,-0.72596 0.546335,-1.26577 0.531936,-0.52529 1.267608,-0.52066 0.738094,0.007 1.263383,0.53901 0.585807,0.59322 0.574195,1.27769 -0.0067,0.6845 -0.607312,1.27757 l -1.198693,1.18371 -0.905338,-0.91679 1.132509,-1.11836 q 0.193654,-0.19123 0.214459,-0.4006 0.02322,-0.20693 -0.134119,-0.36626 -0.142821,-0.14463 -0.352317,-0.14595 -0.209496,-0.001 -0.354124,0.14151 -0.151982,0.15008 -0.155627,0.34251 -0.0036,0.19243 0.141595,0.33951 0.118614,0.12011 0.284017,0.16013 z"/>
      <path
        id="path4641"
        d="m 66.105922,204.05436 -1.016631,-0.79158 1.138696,-1.46243 q 0.131225,-0.16853 0.146684,-0.26129 0.01546,-0.0927 -0.07696,-0.16471 -0.171251,-0.13334 -0.406186,0.16838 l -1.13658,1.45971 -1.01663,-0.79158 1.138695,-1.46243 q 0.131226,-0.16853 0.143967,-0.2634 0.01546,-0.0927 -0.07696,-0.16472 -0.168532,-0.13122 -0.403468,0.17051 l -1.136579,1.4597 -1.016631,-0.79158 1.299553,-1.66901 q 0.355578,-0.45667 0.910376,-0.53554 0.556915,-0.0816 0.994556,0.25917 0.451232,0.35135 0.513728,1.01129 0.695899,-0.0694 1.095484,0.2417 0.508316,0.3958 0.527631,1.00465 0.01757,0.47651 -0.412084,1.02831 z"/>
      <path
        id="path4643"
        d="m 69.694874,202.19469 -1.825227,2.90966 -1.091487,-0.68469 1.825227,-2.90966 z m 0.271845,-1.63921 q 0.2218,0.13913 0.283454,0.39742 0.0664,0.25719 -0.06724,0.47024 -0.142797,0.22763 -0.389009,0.27653 -0.243293,0.0507 -0.482603,-0.0994 -0.23931,-0.15012 -0.30245,-0.39307 -0.06022,-0.24112 0.08257,-0.46875 0.133643,-0.21305 0.391184,-0.26703 0.26229,-0.0551 0.484089,0.0841 z"/>
      <path
        id="path4645"
        d="m 71.792094,201.92227 -0.632132,1.15427 0.507636,0.27801 -0.653644,1.19355 -0.507636,-0.27801 q -0.196921,0.35958 -0.159586,0.55678 0.04036,0.19886 0.342521,0.36433 l -0.650335,1.18751 q -0.08928,-0.045 -0.131585,-0.0681 -0.383749,-0.21016 -0.627562,-0.57543 -0.240791,-0.36362 -0.279128,-0.78133 -0.04639,-0.5321 0.306078,-1.17571 l 1.355278,-2.47473 z"/>
      <path
        id="path4647"
        d="m 75.476999,205.03197 -0.512945,1.25672 q -0.251981,-0.10285 -0.386727,-0.0462 -0.130254,0.0547 -0.269036,0.32183 -0.459177,0.88795 -1.24565,1.00974 -0.415629,0.0611 -1.031228,-0.1902 l -0.165861,-0.0677 0.51555,-1.2631 0.05422,0.0221 q 0.287067,0.11717 0.456443,0.0486 0.173868,-0.0704 0.315384,-0.36244 0.224706,-0.4776 0.369216,-0.64932 0.1477,-0.17042 0.428062,-0.28297 0.490162,-0.19808 1.112141,0.0558 z"/>
      <path
        id="path4649"
        d="m 76.920046,205.4556 -1.097937,3.25455 -1.220865,-0.41186 1.097936,-3.25455 z m -0.117117,-1.65746 q 0.248091,0.0837 0.368163,0.32053 0.124437,0.23468 0.04405,0.47298 -0.0859,0.25462 -0.313969,0.35947 -0.224808,0.10595 -0.492485,0.0156 -0.267676,-0.0903 -0.385624,-0.31188 -0.114684,-0.22049 -0.02879,-0.4751 0.08039,-0.2383 0.318296,-0.35074 0.24227,-0.11461 0.49036,-0.0309 z"/>
      <path
        id="path4651"
        d="m 78.974594,207.93913 1.251784,0.26264 q -0.233639,0.70865 -0.834252,1.05234 -0.600612,0.34368 -1.295875,0.1702 -0.735373,-0.1835 -1.115838,-0.82169 -0.377122,-0.63737 -0.19196,-1.37942 0.175987,-0.70529 0.812515,-1.07907 0.636528,-0.37378 1.351846,-0.19529 0.625067,0.15597 1.004641,0.66966 0.379573,0.5137 0.343931,1.15459 l -1.278525,-0.26931 q -0.110407,-0.2548 -0.361103,-0.31735 -0.213927,-0.0534 -0.386004,0.0528 -0.172078,0.10619 -0.225458,0.32012 -0.05421,0.21727 0.05282,0.40021 0.110376,0.18377 0.327645,0.23799 0.317548,0.0792 0.543833,-0.25843 z"/>
      <path
        id="path4653"
        d="m 82.327933,205.40184 -0.200684,1.42252 q 0.357282,-0.18967 0.681357,-0.14395 0.491229,0.0693 0.727729,0.46451 0.239912,0.39568 0.154729,0.99948 l -0.304153,2.15595 -1.275832,-0.17999 0.253622,-1.79776 q 0.0308,-0.21832 -0.0064,-0.30011 -0.03376,-0.0813 -0.166801,-0.10007 -0.214913,-0.0303 -0.259669,0.28693 l -0.260841,1.84893 -1.275832,-0.17999 0.656914,-4.65644 z"/>
      <path
        id="path4655"
        d="m 85.526963,205.83768 0.693449,0.82846 -0.726301,-0.0299 -0.782946,-0.83214 z"/>
      <path
        id="path4657"
        d="m 89.676875,206.9835 0.05684,1.35618 q -0.271924,0.0114 -0.370858,0.11899 -0.09564,0.104 -0.110623,0.40461 -0.0478,0.99851 -0.712167,1.43668 -0.352474,0.22856 -1.016794,0.2564 l -0.178988,0.007 -0.05713,-1.36306 0.05851,-0.002 q 0.309787,-0.013 0.435248,-0.14582 0.128759,-0.13643 0.135851,-0.46085 0.0055,-0.52779 0.06536,-0.74408 0.06334,-0.21644 0.27139,-0.4355 0.363193,-0.38417 1.034397,-0.4123 z"/>
      <path
        id="path4659"
        d="m 91.336654,206.87042 1.263042,-0.25469 0.3657,1.81351 q 0.0429,0.21276 0.103831,0.28833 0.06025,0.0722 0.175069,0.049 0.212758,-0.0429 0.136485,-0.42114 l -0.3657,-1.81352 1.263041,-0.25469 0.365701,1.81351 q 0.0429,0.21276 0.103831,0.28833 0.06362,0.0715 0.178445,0.0484 0.209382,-0.0422 0.133109,-0.42045 l -0.3657,-1.81352 1.263041,-0.25469 0.418138,2.07355 q 0.114409,0.56735 -0.186847,1.04281 -0.301936,0.47207 -0.845652,0.58171 -0.560601,0.11305 -1.101721,-0.26985 -0.397718,0.57222 -0.897531,0.67301 -0.631521,0.12735 -1.105752,-0.25499 -0.373431,-0.30074 -0.510994,-0.98292 z"/>
      <path
        id="path4661"
        d="m 97.556498,205.32461 1.015548,3.2812 -1.23086,0.38096 -1.015547,-3.2812 z m -1.065417,-1.27506 q 0.250121,-0.0774 0.486135,0.0443 0.238285,0.11738 0.312643,0.35763 0.07945,0.2567 -0.04405,0.47524 -0.120205,0.21753 -0.390073,0.30105 -0.269867,0.0835 -0.495224,-0.027 -0.222066,-0.11159 -0.301517,-0.36829 -0.07436,-0.24025 0.05267,-0.4707 0.129295,-0.23476 0.379416,-0.31217 z"/>
      <path
        id="path4663"
        d="m 101.88395,205.73363 -1.81444,0.72349 q -0.09647,-0.12102 -0.142406,-0.23622 -0.0638,-0.16 -0.06745,-0.33657 l 0.608012,-0.24244 q -0.20563,-0.32969 -0.541642,-0.19571 -0.224006,0.0893 -0.28825,0.33747 -0.06552,0.24494 0.05315,0.54255 0.123772,0.31041 0.334734,0.44882 0.21416,0.13714 0.43497,0.0491 0.1792,-0.0715 0.27415,-0.31702 l 1.00828,0.54744 q -0.32752,0.56453 -0.90994,0.79676 -0.71042,0.28327 -1.383753,-8.6e-4 -0.673336,-0.28414 -0.954055,-0.98816 -0.279444,-0.70082 0.01429,-1.37798 0.296937,-0.67844 1.007354,-0.96171 0.694421,-0.27689 1.353681,0.009 0.66118,0.28156 0.9368,0.97278 0.0281,0.0704 0.0765,0.22911 z"/>
      <path
        id="path4665"
        d="m 102.6016,201.75701 1.13893,-0.60249 1.33869,2.5306 q 0.36891,0.69737 0.23545,1.3292 -0.0764,0.36391 -0.32332,0.6855 -0.24386,0.31997 -0.58493,0.5004 -0.67909,0.35924 -1.38665,0.14892 -0.70757,-0.21031 -1.05875,-0.87417 -0.33991,-0.64255 -0.12512,-1.35638 0.2148,-0.71384 0.84821,-1.04891 0.10049,-0.0532 0.31419,-0.14282 l 0.66371,1.25464 q -0.19808,-0.0355 -0.33816,0.0386 -0.17662,0.0934 -0.23525,0.29204 -0.0572,0.19395 0.0395,0.37666 0.0934,0.17663 0.29204,0.23526 0.19699,0.0556 0.37971,-0.0411 0.43851,-0.23197 0.11793,-0.83798 z"/>
      <path
        id="path4667"
        d="m 108.46719,201.81326 -1.61777,1.09473 q -0.12012,-0.0976 -0.18963,-0.2003 -0.0965,-0.14266 -0.13785,-0.31437 l 0.54211,-0.36684 q -0.27138,-0.2781 -0.57097,-0.0754 -0.19972,0.13516 -0.20942,0.3913 -0.0116,0.2533 0.16793,0.51864 0.18729,0.27677 0.42297,0.36687 0.23853,0.0882 0.4354,-0.0451 0.15978,-0.10812 0.20003,-0.3683 l 1.10201,0.31917 q -0.19923,0.62151 -0.71852,0.97291 -0.63341,0.42862 -1.35193,0.29504 -0.71852,-0.13359 -1.14329,-0.7613 -0.42283,-0.62485 -0.28069,-1.34916 0.145,-0.72625 0.77842,-1.15487 0.61915,-0.41898 1.32432,-0.28052 0.7061,0.13367 1.12314,0.74997 0.0425,0.0628 0.12374,0.20745 z"/>
      <path
        id="path4669"
        d="m 109.00831,198.82418 0.8653,1.0725 q -0.15216,0.0254 -0.23796,0.0946 -0.27349,0.22065 0.064,0.63893 l 1.02321,1.26823 -1.00279,0.80905 -1.17896,-1.46128 q -0.46726,-0.57915 -0.42777,-1.17761 0.0373,-0.60114 0.56554,-1.0273 0.11797,-0.0952 0.32945,-0.21712 z"/>
      <path
        id="path4671"
        d="m 110.82296,195.32776 0.88573,-0.93574 2.07915,1.96804 q 0.57296,0.54234 0.64905,1.18361 0.0442,0.3692 -0.0866,0.75296 -0.12844,0.38125 -0.39369,0.66148 -0.52813,0.55794 -1.26577,0.5855 -0.73765,0.0276 -1.28308,-0.48872 -0.52792,-0.49971 -0.55325,-1.24472 -0.0253,-0.74502 0.46728,-1.26543 0.0781,-0.0826 0.25184,-0.23599 l 1.03082,0.97573 q -0.19902,0.0298 -0.30796,0.14492 -0.13736,0.14512 -0.12924,0.35204 0.008,0.20205 0.1581,0.34414 0.14512,0.13736 0.35204,0.12925 0.20442,-0.0105 0.34651,-0.16061 0.34103,-0.36029 -0.15686,-0.83157 z"/>
      <path
        id="path4673"
        d="m 113.99461,193.45126 1.07823,0.85814 q -0.14297,0.0579 -0.21162,0.14419 -0.21883,0.27495 0.20168,0.60962 l 1.27501,1.01475 -0.80236,1.00815 -1.46909,-1.16922 q -0.58225,-0.46339 -0.67413,-1.05608 -0.0946,-0.59482 0.32806,-1.12585 0.0944,-0.11861 0.27422,-0.2837 z"/>
      <path
        id="path4675"
        d="m 117.5675,191.67263 -1.08525,1.62416 q -0.14805,-0.0451 -0.25118,-0.11397 -0.14322,-0.0957 -0.24626,-0.23913 l 0.36366,-0.54425 q -0.35623,-0.15517 -0.55721,0.1456 -0.13398,0.20051 -0.0463,0.44139 0.0848,0.23896 0.35119,0.41697 0.27785,0.18566 0.53011,0.18019 0.25417,-0.008 0.38624,-0.20598 0.10718,-0.16041 0.0463,-0.41655 l 1.14099,-0.12014 q 0.05,0.65075 -0.2984,1.17208 -0.42491,0.63591 -1.14073,0.78326 -0.71583,0.14735 -1.34601,-0.27374 -0.62732,-0.41917 -0.76892,-1.14359 -0.13969,-0.72728 0.28522,-1.36319 0.41534,-0.62159 1.12064,-0.75939 0.70436,-0.14258 1.32308,0.27084 0.063,0.0421 0.19286,0.14544 z"/>
      <path
        id="path4677"
        d="m 115.52905,188.70447 1.27041,0.67073 q -0.0574,-0.40041 0.0954,-0.68983 0.23162,-0.4387 0.68357,-0.52733 0.45356,-0.0917 0.9928,0.19302 l 1.92542,1.01656 -0.60157,1.13941 -1.60553,-0.84767 q -0.19498,-0.10294 -0.28452,-0.0957 -0.0879,0.004 -0.15067,0.12303 -0.10133,0.19193 0.182,0.34152 l 1.65123,0.8718 -0.60157,1.13941 -4.15854,-2.19557 z"/>
      <path
        id="path4679"
        d="m 116.92097,185.7715 1.21034,0.51673 0.22725,-0.53229 1.25153,0.53431 -0.22725,0.5323 q 0.37704,0.16097 0.56967,0.10461 0.19398,-0.0595 0.32925,-0.37638 l 1.24519,0.53161 q -0.0361,0.0932 -0.055,0.1376 -0.17179,0.40239 -0.51158,0.68061 -0.33844,0.27505 -0.75043,0.35389 -0.52506,0.098 -1.19994,-0.19014 l -2.59493,-1.10786 z"/>
      <path
        id="path4681"
        d="m 117.84786,183.26066 2.75177,0.9711 -0.39746,1.15662 -2.78312,-0.87987 z m 2.77159,1.65548 q 0.10972,-0.31929 0.41942,-0.46787 0.31081,-0.15183 0.63011,-0.0421 0.31929,0.10972 0.46573,0.41504 0.14318,0.3042 0.0323,0.62675 -0.11532,0.33558 -0.40537,0.47998 -0.29219,0.14002 -0.62777,0.0247 -0.32581,-0.11196 -0.47337,-0.41402 -0.15081,-0.30318 -0.0411,-0.62247 z"/>
    </g>
  </g>
</svg>
